<svg width="18" height="18" viewBox="0 0 18 18" fill="none" xmlns="http://www.w3.org/2000/svg">
<path d="M8.6875 0.195312L8.41406 0.46875C8.21875 0.664062 8.21875 0.9375 8.41406 1.13281L15.3672 8.08594H0.71875C0.445312 8.08594 0.25 8.32031 0.25 8.55469V8.94531C0.25 9.21875 0.445312 9.41406 0.71875 9.41406H15.3672L8.41406 16.4062C8.21875 16.6016 8.21875 16.875 8.41406 17.0703L8.6875 17.3438C8.88281 17.5391 9.15625 17.5391 9.35156 17.3438L17.5938 9.10156C17.7891 8.90625 17.7891 8.63281 17.5938 8.4375L9.35156 0.195312C9.15625 0 8.88281 0 8.6875 0.195312Z" fill="white"/>
</svg>
