<svg width="18" height="18" viewBox="0 0 18 18" fill="none" xmlns="http://www.w3.org/2000/svg">
<path d="M9.27344 17.3438L9.54688 17.0703C9.74219 16.875 9.74219 16.6016 9.54688 16.4062L2.59375 9.41406H17.2812C17.5156 9.41406 17.75 9.21875 17.75 8.94531V8.55469C17.75 8.32031 17.5156 8.08594 17.2812 8.08594H2.59375L9.54688 1.13281C9.74219 0.9375 9.74219 0.664062 9.54688 0.46875L9.27344 0.195312C9.07812 0 8.80469 0 8.60938 0.195312L0.367188 8.4375C0.171875 8.63281 0.171875 8.90625 0.367188 9.10156L8.60938 17.3438C8.80469 17.5391 9.07812 17.5391 9.27344 17.3438Z" fill="white"/>
</svg>
