<svg width="18" height="18" viewBox="0 0 18 18" fill="none" xmlns="http://www.w3.org/2000/svg">
<path d="M0.40625 9.0625L0.679688 9.33594C0.875 9.53125 1.14844 9.53125 1.34375 9.33594L8.33594 2.38281V17.0312C8.33594 17.3047 8.53125 17.5 8.80469 17.5H9.19531C9.42969 17.5 9.66406 17.3047 9.66406 17.0312V2.38281L16.6172 9.33594C16.8125 9.53125 17.0859 9.53125 17.2812 9.33594L17.5547 9.0625C17.75 8.86719 17.75 8.59375 17.5547 8.39844L9.3125 0.15625C9.11719 -0.0390625 8.84375 -0.0390625 8.64844 0.15625L0.40625 8.39844C0.210938 8.59375 0.210938 8.86719 0.40625 9.0625Z" fill="white"/>
</svg>
