<svg width="18" height="18" viewBox="0 0 18 18" fill="none" xmlns="http://www.w3.org/2000/svg">
<path d="M17.5547 8.47656L17.2812 8.20312C17.0859 8.00781 16.8125 8.00781 16.6172 8.20312L9.66406 15.1562V0.46875C9.66406 0.234375 9.42969 0 9.19531 0H8.80469C8.53125 0 8.33594 0.234375 8.33594 0.46875V15.1562L1.34375 8.20312C1.14844 8.00781 0.875 8.00781 0.679688 8.20312L0.40625 8.47656C0.210938 8.67188 0.210938 8.94531 0.40625 9.14062L8.64844 17.3828C8.84375 17.5781 9.11719 17.5781 9.3125 17.3828L17.5547 9.14062C17.75 8.94531 17.75 8.67188 17.5547 8.47656Z" fill="white"/>
</svg>
