<svg width="14" height="12" viewBox="0 0 14 12" fill="none" xmlns="http://www.w3.org/2000/svg">
<path d="M12.6875 0.75H1.3125C0.574219 0.75 0 1.35156 0 2.0625V9.9375C0 10.6758 0.574219 11.25 1.3125 11.25H12.6875C13.3984 11.25 14 10.6758 14 9.9375V2.0625C14 1.35156 13.3984 0.75 12.6875 0.75ZM1.3125 1.625H12.6875C12.9062 1.625 13.125 1.84375 13.125 2.0625V3.21094C12.5234 3.70312 11.6484 4.41406 8.99609 6.51953C8.53125 6.90234 7.62891 7.77734 7 7.75C6.34375 7.77734 5.44141 6.90234 4.97656 6.51953C2.32422 4.41406 1.44922 3.70312 0.875 3.21094V2.0625C0.875 1.84375 1.06641 1.625 1.3125 1.625ZM12.6875 10.375H1.3125C1.06641 10.375 0.875 10.1836 0.875 9.9375V4.33203C1.47656 4.85156 2.46094 5.64453 4.42969 7.20312C5.00391 7.66797 5.98828 8.65234 7 8.625C7.98438 8.65234 8.96875 7.66797 9.54297 7.20312C11.5117 5.64453 12.4961 4.85156 13.125 4.33203V9.9375C13.125 10.1836 12.9062 10.375 12.6875 10.375Z" fill="white"/>
</svg>
