<svg width="25" height="19" viewBox="0 0 25 19" fill="none" xmlns="http://www.w3.org/2000/svg">
<path d="M24 6.20312C22.9219 7.04688 21.5625 8.07812 16.7812 11.5469C15.8438 12.25 14.1094 13.7969 12.4688 13.7969C10.7812 13.7969 9.09375 12.25 8.10938 11.5469C3.32812 8.07812 1.96875 7.04688 0.890625 6.20312C0.703125 6.0625 0.46875 6.20312 0.46875 6.4375V16C0.46875 17.2656 1.45312 18.25 2.71875 18.25H22.2188C23.4375 18.25 24.4688 17.2656 24.4688 16V6.4375C24.4688 6.20312 24.1875 6.0625 24 6.20312ZM12.4688 12.25C13.5469 12.2969 15.0938 10.8906 15.8906 10.3281C22.125 5.82812 22.5938 5.40625 24 4.28125C24.2812 4.09375 24.4688 3.76562 24.4688 3.39062V2.5C24.4688 1.28125 23.4375 0.25 22.2188 0.25H2.71875C1.45312 0.25 0.46875 1.28125 0.46875 2.5V3.39062C0.46875 3.76562 0.609375 4.09375 0.890625 4.28125C2.29688 5.40625 2.76562 5.82812 9 10.3281C9.79688 10.8906 11.3438 12.2969 12.4688 12.25Z" fill="white"/>
</svg>
