<svg width="11" height="14" viewBox="0 0 11 14" fill="none" xmlns="http://www.w3.org/2000/svg">
<path d="M10.0898 2.67969L7.82031 0.382812C7.57422 0.136719 7.21875 0 6.89062 0H1.3125C0.574219 0 0 0.601562 0 1.3125V12.6875C0 13.4258 0.574219 14 1.3125 14H9.1875C9.89844 14 10.5 13.4258 10.5 12.6875V3.60938C10.5 3.28125 10.3359 2.92578 10.0898 2.67969ZM9.48828 3.30859C9.54297 3.36328 9.57031 3.44531 9.59766 3.5H7V0.902344C7.05469 0.929688 7.13672 0.957031 7.19141 1.01172L9.48828 3.30859ZM9.1875 13.125H1.3125C1.06641 13.125 0.875 12.9336 0.875 12.6875V1.3125C0.875 1.09375 1.06641 0.875 1.3125 0.875H6.125V3.71875C6.125 4.10156 6.39844 4.375 6.78125 4.375H9.625V12.6875C9.625 12.9336 9.40625 13.125 9.1875 13.125ZM7.875 6.45312C7.875 6.28906 7.71094 6.125 7.54688 6.125H2.95312C2.76172 6.125 2.625 6.28906 2.625 6.45312V6.67188C2.625 6.86328 2.76172 7 2.95312 7H7.54688C7.71094 7 7.875 6.86328 7.875 6.67188V6.45312ZM7.875 8.20312C7.875 8.03906 7.71094 7.875 7.54688 7.875H2.95312C2.76172 7.875 2.625 8.03906 2.625 8.20312V8.42188C2.625 8.61328 2.76172 8.75 2.95312 8.75H7.54688C7.71094 8.75 7.875 8.61328 7.875 8.42188V8.20312ZM7.875 9.95312C7.875 9.78906 7.71094 9.625 7.54688 9.625H2.95312C2.76172 9.625 2.625 9.78906 2.625 9.95312V10.1719C2.625 10.3633 2.76172 10.5 2.95312 10.5H7.54688C7.71094 10.5 7.875 10.3633 7.875 10.1719V9.95312Z" fill="white"/>
</svg>
