<svg width="21" height="22" viewBox="0 0 21 22" fill="none" xmlns="http://www.w3.org/2000/svg">
<path d="M10.5234 5.48438C7.52344 5.48438 5.13281 7.92188 5.13281 10.875C5.13281 13.875 7.52344 16.2656 10.5234 16.2656C13.4766 16.2656 15.9141 13.875 15.9141 10.875C15.9141 7.92188 13.4766 5.48438 10.5234 5.48438ZM10.5234 14.3906C8.60156 14.3906 7.00781 12.8438 7.00781 10.875C7.00781 8.95312 8.55469 7.40625 10.5234 7.40625C12.4453 7.40625 13.9922 8.95312 13.9922 10.875C13.9922 12.8438 12.4453 14.3906 10.5234 14.3906ZM17.3672 5.29688C17.3672 4.59375 16.8047 4.03125 16.1016 4.03125C15.3984 4.03125 14.8359 4.59375 14.8359 5.29688C14.8359 6 15.3984 6.5625 16.1016 6.5625C16.8047 6.5625 17.3672 6 17.3672 5.29688ZM20.9297 6.5625C20.8359 4.875 20.4609 3.375 19.2422 2.15625C18.0234 0.9375 16.5234 0.5625 14.8359 0.46875C13.1016 0.375 7.89844 0.375 6.16406 0.46875C4.47656 0.5625 3.02344 0.9375 1.75781 2.15625C0.539062 3.375 0.164062 4.875 0.0703125 6.5625C-0.0234375 8.29688 -0.0234375 13.5 0.0703125 15.2344C0.164062 16.9219 0.539062 18.375 1.75781 19.6406C3.02344 20.8594 4.47656 21.2344 6.16406 21.3281C7.89844 21.4219 13.1016 21.4219 14.8359 21.3281C16.5234 21.2344 18.0234 20.8594 19.2422 19.6406C20.4609 18.375 20.8359 16.9219 20.9297 15.2344C21.0234 13.5 21.0234 8.29688 20.9297 6.5625ZM18.6797 17.0625C18.3516 18 17.6016 18.7031 16.7109 19.0781C15.3047 19.6406 12.0234 19.5 10.5234 19.5C8.97656 19.5 5.69531 19.6406 4.33594 19.0781C3.39844 18.7031 2.69531 18 2.32031 17.0625C1.75781 15.7031 1.89844 12.4219 1.89844 10.875C1.89844 9.375 1.75781 6.09375 2.32031 4.6875C2.69531 3.79688 3.39844 3.09375 4.33594 2.71875C5.69531 2.15625 8.97656 2.29688 10.5234 2.29688C12.0234 2.29688 15.3047 2.15625 16.7109 2.71875C17.6016 3.04688 18.3047 3.79688 18.6797 4.6875C19.2422 6.09375 19.1016 9.375 19.1016 10.875C19.1016 12.4219 19.2422 15.7031 18.6797 17.0625Z" fill="white"/>
</svg>
