<svg width="22" height="22" viewBox="0 0 22 22" fill="none" xmlns="http://www.w3.org/2000/svg">
<path d="M19.5234 0.375H1.47656C0.679688 0.375 0.0234375 1.07812 0.0234375 1.92188V19.875C0.0234375 20.7188 0.679688 21.375 1.47656 21.375H19.5234C20.3203 21.375 21.0234 20.7188 21.0234 19.875V1.92188C21.0234 1.07812 20.3203 0.375 19.5234 0.375ZM6.35156 18.375H3.25781V8.39062H6.35156V18.375ZM4.80469 6.98438C3.77344 6.98438 2.97656 6.1875 2.97656 5.20312C2.97656 4.21875 3.77344 3.375 4.80469 3.375C5.78906 3.375 6.58594 4.21875 6.58594 5.20312C6.58594 6.1875 5.78906 6.98438 4.80469 6.98438ZM18.0234 18.375H14.8828V13.5C14.8828 12.375 14.8828 10.875 13.2891 10.875C11.6484 10.875 11.4141 12.1406 11.4141 13.4531V18.375H8.32031V8.39062H11.2734V9.75H11.3203C11.7422 8.95312 12.7734 8.10938 14.2734 8.10938C17.4141 8.10938 18.0234 10.2188 18.0234 12.8906V18.375Z" fill="white"/>
</svg>
