<svg width="22" height="22" viewBox="0 0 22 22" fill="none" xmlns="http://www.w3.org/2000/svg">
<path d="M5.65625 21.25V7.23438H1.29688V21.25H5.65625ZM3.45312 5.35938C4.85938 5.35938 5.98438 4.1875 5.98438 2.78125C5.98438 1.42188 4.85938 0.296875 3.45312 0.296875C2.09375 0.296875 0.96875 1.42188 0.96875 2.78125C0.96875 4.1875 2.09375 5.35938 3.45312 5.35938ZM21.9688 21.25V13.5625C21.9688 9.8125 21.125 6.90625 16.7188 6.90625C14.6094 6.90625 13.2031 8.07812 12.5938 9.15625H12.5469V7.23438H8.375V21.25H12.7344V14.3125C12.7344 12.4844 13.0625 10.75 15.3125 10.75C17.5625 10.75 17.6094 12.8125 17.6094 14.4531V21.25H21.9688Z" fill="white"/>
</svg>
