<svg width="15" height="14" viewBox="0 0 15 14" fill="none" xmlns="http://www.w3.org/2000/svg">
<path d="M14.3164 0.683592L11.582 0.027342C11.1719 -0.0546892 10.7617 0.136717 10.5977 0.51953L9.3125 3.5C9.17578 3.85547 9.25781 4.26562 9.55859 4.48437L11.0352 5.6875C10.1055 7.60156 8.57422 9.13281 6.66016 10.0625L5.45703 8.58594C5.23828 8.28515 4.82813 8.20312 4.47266 8.33984L1.49219 9.625C1.13672 9.78906 0.917969 10.1992 1 10.582L1.65625 13.3437C1.73828 13.7266 2.06641 14 2.47656 14C9.36719 14 15 8.42187 15 1.5039C15 1.09375 14.7266 0.765623 14.3164 0.683592ZM2.50391 13.125L1.875 10.418L4.80078 9.16015L6.44141 11.1562C9.25781 9.8164 10.7891 8.28515 12.1289 5.46875L10.1328 3.82812L11.3906 0.902342L14.0977 1.53125C14.0977 7.92969 8.90234 13.125 2.50391 13.125Z" fill="white"/>
</svg>
