<svg width="24" height="24" viewBox="0 0 24 24" fill="none" xmlns="http://www.w3.org/2000/svg">
<path d="M23.2734 11.875C23.2734 5.45312 18.0703 0.25 11.6484 0.25C5.22656 0.25 0.0234375 5.45312 0.0234375 11.875C0.0234375 16.8438 3.07031 21.0156 7.38281 22.7031C7.28906 21.8125 7.19531 20.4062 7.42969 19.375C7.66406 18.4844 8.78906 13.6094 8.78906 13.6094C8.78906 13.6094 8.46094 12.9062 8.46094 11.875C8.46094 10.2812 9.39844 9.0625 10.5703 9.0625C11.5547 9.0625 12.0234 9.8125 12.0234 10.7031C12.0234 11.6875 11.3672 13.1875 11.0391 14.5938C10.8047 15.7188 11.6484 16.6562 12.7734 16.6562C14.8359 16.6562 16.4297 14.5 16.4297 11.3594C16.4297 8.54688 14.4141 6.625 11.6016 6.625C8.27344 6.625 6.35156 9.10938 6.35156 11.6406C6.35156 12.6719 6.72656 13.75 7.19531 14.3125C7.28906 14.4062 7.28906 14.5469 7.28906 14.6406C7.19531 15.0156 6.96094 15.8125 6.96094 15.9531C6.91406 16.1875 6.77344 16.2344 6.53906 16.1406C5.08594 15.4375 4.19531 13.3281 4.19531 11.5938C4.19531 7.9375 6.86719 4.5625 11.8828 4.5625C15.9141 4.5625 19.0547 7.46875 19.0547 11.3125C19.0547 15.2969 16.5234 18.5312 13.0078 18.5312C11.8359 18.5312 10.7109 17.9219 10.3359 17.1719C10.3359 17.1719 9.77344 19.4219 9.63281 19.9375C9.35156 20.9688 8.64844 22.2344 8.17969 22.9844C9.25781 23.3594 10.4297 23.5 11.6484 23.5C18.0703 23.5 23.2734 18.2969 23.2734 11.875Z" fill="white"/>
</svg>
