<svg width="19" height="24" viewBox="0 0 19 24" fill="none" xmlns="http://www.w3.org/2000/svg">
<path d="M10.0312 0.578125C5.20312 0.578125 0.46875 3.76562 0.46875 8.96875C0.46875 12.25 2.29688 14.125 3.42188 14.125C3.89062 14.125 4.17188 12.8594 4.17188 12.4844C4.17188 12.0625 3.04688 11.125 3.04688 9.29688C3.04688 5.54688 5.90625 2.875 9.60938 2.875C12.8438 2.875 15.1875 4.70312 15.1875 8.03125C15.1875 10.5156 14.2031 15.1562 10.9688 15.1562C9.79688 15.1562 8.76562 14.3125 8.76562 13.1406C8.76562 11.3594 10.0312 9.625 10.0312 7.79688C10.0312 4.70312 5.625 5.26562 5.625 9.01562C5.625 9.8125 5.71875 10.6562 6.09375 11.4062C5.4375 14.1719 4.125 18.3438 4.125 21.2031C4.125 22.0938 4.21875 22.9375 4.3125 23.8281C4.45312 24.0156 4.40625 24.0156 4.64062 23.9219C6.98438 20.6875 6.9375 20.0312 7.96875 15.8125C8.57812 16.8906 10.0312 17.5 11.25 17.5C16.2188 17.5 18.4688 12.625 18.4688 8.26562C18.4688 3.625 14.4375 0.578125 10.0312 0.578125Z" fill="white"/>
</svg>
