<svg width="14" height="15" viewBox="0 0 14 15" fill="none" xmlns="http://www.w3.org/2000/svg">
<path d="M13.8906 13.1797L10.3633 9.65234C10.3086 9.59766 10.2266 9.57031 10.1445 9.57031H9.84375C10.8008 8.53125 11.375 7.19141 11.375 5.6875C11.375 2.57031 8.80469 0 5.6875 0C2.54297 0 0 2.57031 0 5.6875C0 8.83203 2.54297 11.375 5.6875 11.375C7.16406 11.375 8.53125 10.8008 9.54297 9.87109V10.1445C9.54297 10.2539 9.57031 10.3359 9.625 10.3906L13.1523 13.918C13.2891 14.0547 13.4805 14.0547 13.6172 13.918L13.8906 13.6445C14.0273 13.5078 14.0273 13.3164 13.8906 13.1797ZM5.6875 10.5C3.00781 10.5 0.875 8.36719 0.875 5.6875C0.875 3.03516 3.00781 0.875 5.6875 0.875C8.33984 0.875 10.5 3.03516 10.5 5.6875C10.5 8.36719 8.33984 10.5 5.6875 10.5Z" fill="white"/>
</svg>
