<svg width="13" height="14" viewBox="0 0 13 14" fill="none" xmlns="http://www.w3.org/2000/svg">
<path d="M9.625 3.5C9.625 1.58594 8.03906 0 6.125 0C4.18359 0 2.625 1.58594 2.625 3.5H0V11.8125C0 13.043 0.957031 14 2.1875 14H10.0625C11.2656 14 12.25 13.043 12.25 11.8125V3.5H9.625ZM6.125 0.875C7.54688 0.875 8.75 2.07812 8.75 3.5H3.5C3.5 2.07812 4.67578 0.875 6.125 0.875ZM11.375 11.8125C11.375 12.5508 10.7734 13.125 10.0625 13.125H2.1875C1.44922 13.125 0.875 12.5508 0.875 11.8125V4.375H2.625V5.6875C2.625 5.93359 2.81641 6.125 3.0625 6.125C3.28125 6.125 3.5 5.93359 3.5 5.6875V4.375H8.75V5.6875C8.75 5.93359 8.94141 6.125 9.1875 6.125C9.40625 6.125 9.625 5.93359 9.625 5.6875V4.375H11.375V11.8125Z" fill="white"/>
</svg>
