<svg width="12" height="17" viewBox="0 0 12 17" fill="none" xmlns="http://www.w3.org/2000/svg">
<path d="M5.93262 0.131836C5.75684 -0.0439453 5.51074 -0.0439453 5.33496 0.131836L0.131836 5.26465C-0.0439453 5.44043 -0.0439453 5.72168 0.131836 5.8623L0.834961 6.56543C1.01074 6.74121 1.25684 6.74121 1.43262 6.56543L5.65137 2.41699L9.83496 6.56543C10.0107 6.74121 10.292 6.74121 10.4326 6.56543L11.1357 5.8623C11.3115 5.72168 11.3115 5.44043 11.1357 5.26465L5.93262 0.131836Z" fill="white"/>
<path d="M5.33496 16.5654C5.51074 16.7412 5.75684 16.7412 5.93262 16.5654L11.1357 11.4326C11.3115 11.2568 11.3115 10.9756 11.1357 10.835L10.4326 10.1318C10.2568 9.95605 10.0107 9.95605 9.83496 10.1318L5.61621 14.2803L1.43262 10.1318C1.25684 9.95606 0.975585 9.95606 0.83496 10.1318L0.131835 10.835C-0.0439458 10.9756 -0.0439458 11.2568 0.131835 11.4326L5.33496 16.5654Z" fill="white"/>
</svg>
