<svg width="11" height="14" viewBox="0 0 11 14" fill="none" xmlns="http://www.w3.org/2000/svg">
<path d="M8.20312 5.57812L7.92969 3.5H8.96875C9.32422 3.5 9.625 3.22656 9.625 2.84375V0.65625C9.625 0.300781 9.32422 0 8.96875 0H1.53125C1.14844 0 0.875 0.300781 0.875 0.65625V2.84375C0.875 3.22656 1.14844 3.5 1.53125 3.5H2.54297L2.26953 5.57812C0.929688 6.34375 0 7.62891 0 9.1875C0 9.40625 0.191406 9.625 0.4375 9.625H4.8125V12.9062C4.8125 12.9336 4.8125 12.9609 4.8125 12.9609L5.03125 13.8359C5.08594 14.0547 5.38672 14.0547 5.44141 13.8359L5.66016 12.9609C5.66016 12.9609 5.66016 12.9336 5.66016 12.9062V9.625H10.0352C10.2812 9.625 10.4727 9.40625 10.4727 9.1875C10.5 7.62891 9.54297 6.34375 8.20312 5.57812ZM0.902344 8.75C1.09375 7.57422 1.96875 6.64453 3.0625 6.15234L3.5 2.625H1.75V0.875H8.75V2.625H7L7.41016 6.15234C8.50391 6.64453 9.40625 7.57422 9.57031 8.75H0.902344Z" fill="white"/>
</svg>
