<svg width="25" height="20" viewBox="0 0 25 20" fill="none" xmlns="http://www.w3.org/2000/svg">
<path d="M21.9844 5.375C22.9219 4.67188 23.7656 3.82812 24.4219 2.84375C23.5781 3.21875 22.5938 3.5 21.6094 3.59375C22.6406 2.98438 23.3906 2.04688 23.7656 0.875C22.8281 1.4375 21.75 1.85938 20.6719 2.09375C19.7344 1.10938 18.4688 0.546875 17.0625 0.546875C14.3438 0.546875 12.1406 2.75 12.1406 5.46875C12.1406 5.84375 12.1875 6.21875 12.2812 6.59375C8.20312 6.35938 4.54688 4.39062 2.10938 1.4375C1.6875 2.14062 1.45312 2.98438 1.45312 3.92188C1.45312 5.60938 2.29688 7.10938 3.65625 8C2.85938 7.95312 2.0625 7.76562 1.40625 7.39062V7.4375C1.40625 9.82812 3.09375 11.7969 5.34375 12.2656C4.96875 12.3594 4.5 12.4531 4.07812 12.4531C3.75 12.4531 3.46875 12.4062 3.14062 12.3594C3.75 14.3281 5.57812 15.7344 7.73438 15.7812C6.04688 17.0938 3.9375 17.8906 1.64062 17.8906C1.21875 17.8906 0.84375 17.8438 0.46875 17.7969C2.625 19.2031 5.20312 20 8.01562 20C17.0625 20 21.9844 12.5469 21.9844 6.03125C21.9844 5.79688 21.9844 5.60938 21.9844 5.375Z" fill="white"/>
</svg>
