<svg width="13" height="14" viewBox="0 0 13 14" fill="none" xmlns="http://www.w3.org/2000/svg">
<path d="M8.55859 7.875C7.76562 7.875 7.41016 8.3125 6.125 8.3125C4.8125 8.3125 4.45703 7.875 3.66406 7.875C1.64062 7.875 0 9.54297 0 11.5664V12.6875C0 13.4258 0.574219 14 1.3125 14H10.9375C11.6484 14 12.25 13.4258 12.25 12.6875V11.5664C12.25 9.54297 10.582 7.875 8.55859 7.875ZM11.375 12.6875C11.375 12.9336 11.1562 13.125 10.9375 13.125H1.3125C1.06641 13.125 0.875 12.9336 0.875 12.6875V11.5664C0.875 10.0078 2.10547 8.75 3.66406 8.75C4.21094 8.75 4.73047 9.1875 6.125 9.1875C7.49219 9.1875 8.03906 8.75 8.55859 8.75C10.1172 8.75 11.375 10.0078 11.375 11.5664V12.6875ZM6.125 7C8.03906 7 9.625 5.44141 9.625 3.5C9.625 1.58594 8.03906 0 6.125 0C4.18359 0 2.625 1.58594 2.625 3.5C2.625 5.44141 4.18359 7 6.125 7ZM6.125 0.875C7.54688 0.875 8.75 2.07812 8.75 3.5C8.75 4.94922 7.54688 6.125 6.125 6.125C4.67578 6.125 3.5 4.94922 3.5 3.5C3.5 2.07812 4.67578 0.875 6.125 0.875Z" fill="white"/>
</svg>
