<?xml version="1.0" encoding="UTF-8"?>
<svg width="17px" height="14px" viewBox="0 0 17 14" version="1.1" xmlns="http://www.w3.org/2000/svg" xmlns:xlink="http://www.w3.org/1999/xlink">
    <title>comment</title>
    <g id="Symbols" stroke="none" stroke-width="1" fill="none" fill-rule="evenodd">
        <g id="Header---Logged-In" transform="translate(-1232.000000, -36.000000)" fill="#4E4E4E" fill-rule="nonzero">
            <g id="comment" transform="translate(1232.497927, 36.000031)">
                <path d="M8.00205407,0.999997616 C11.8614199,0.999997616 15.0020374,3.46874173 15.0020374,6.4999845 C15.0020374,9.53122728 11.8614199,11.9999714 8.00205407,11.9999714 C7.11768728,11.9999714 6.24268937,11.8656028 5.40205417,11.5999784 L4.9270492,11.4499849 L4.52080016,11.7374598 C3.80205188,12.246858 2.69267952,12.8406066 1.31457002,12.9749752 C1.68956912,12.503083 2.24581169,11.712466 2.58956087,10.799962 L2.81145365,10.2156129 L2.38332357,9.75934563 C1.48018852,8.80311012 1.00207076,7.67496949 1.00207076,6.4999845 C1.00207076,3.46874173 4.14268827,0.999997616 8.00205407,0.999997616 Z M8.00205407,0 C3.5833024,0 0.00207314456,2.90935586 0.00207314456,6.4999845 C0.00207314456,7.98746875 0.623958869,9.34998381 1.65520641,10.446844 C1.18957031,11.6781033 0.220822623,12.7218325 0.20519766,12.7343446 C-0.00103964099,12.9530941 -0.0573139209,13.2718495 0.06146021,13.5468427 C0.180203823,13.8218359 0.448940976,13.9999666 0.748958571,13.9999666 C2.67082899,13.9999666 4.18645038,13.1968374 5.095811,12.5531012 C6.00205884,12.8374633 6.97706262,12.999969 8.00205407,12.999969 C12.4208057,12.999969 16.002035,10.0906131 16.002035,6.4999845 C16.002035,2.90935586 12.4208057,0 8.00205407,0 Z" id="Shape"></path>
            </g>
        </g>
    </g>
</svg>