<?xml version="1.0" encoding="UTF-8"?>
<svg width="19px" height="17px" viewBox="0 0 19 17" version="1.1" xmlns="http://www.w3.org/2000/svg" xmlns:xlink="http://www.w3.org/1999/xlink">
    <title>download</title>
    <g id="Designs" stroke="none" stroke-width="1" fill="none" fill-rule="evenodd">
        <g id="Fabric-Detail---Desktop" transform="translate(-226.000000, -624.000000)" fill="#4E4E4E" fill-rule="nonzero">
            <g id="download" transform="translate(226.356366, 624.945000)">
                <path d="M16.4999607,8.99997854 L13.6218547,8.99997854 L15.0624641,7.55936918 C16.0030746,6.61872812 15.3374573,4.99998808 14.0030794,4.99998808 L12.0030842,4.99998808 L12.0030842,1.5 C12.0030842,0.671873398 11.3312108,0 10.5030878,0 L7.5030949,0 C6.67497188,0 6.00309848,0.671873398 6.00309848,1.5 L6.00309848,4.99998808 L4.00310325,4.99998808 C2.67186863,4.99998808 1.99688245,6.61561533 2.94374909,7.55936918 L4.38435844,8.99997854 L1.5,8.99997854 C0.671873398,8.99997854 0,9.67185194 0,10.499975 L0,14.4999654 C0,15.3280885 0.671873398,15.9999619 1.5,15.9999619 L16.4999607,15.9999619 C17.3280837,15.9999619 17.9999571,15.3280885 17.9999571,14.4999654 L17.9999571,10.499975 C17.9999571,9.67185194 17.3280837,8.99997854 16.4999607,8.99997854 Z M3.99999046,6.4999845 L7.49999046,6.4999845 L7.49999046,1.49999642 L10.499975,1.49999642 L10.499975,6.4999845 L13.9999666,6.4999845 L8.99997854,11.4999726 L3.99999046,6.4999845 Z M16.4999607,14.499975 L1.49999642,14.499975 L1.49999642,10.499975 L5.87809878,10.499975 L7.93748108,12.5593573 C8.52497357,13.1468498 9.47184021,13.1437065 10.0593632,12.5593573 L12.118715,10.499975 L16.4999607,10.499975 L16.4999607,14.499975 Z M13.7499672,12.4999702 C13.7499672,12.9155881 14.0843475,13.249972 14.4999654,13.249972 C14.9155833,13.249972 15.2499672,12.9155881 15.2499672,12.4999702 C15.2499672,12.0843523 14.9155833,11.749972 14.4999654,11.749972 C14.0843475,11.749972 13.7499672,12.0843523 13.7499672,12.4999702 Z" id="Shape"></path>
            </g>
        </g>
    </g>
</svg>