<?xml version="1.0" encoding="UTF-8"?>
<svg width="14px" height="19px" viewBox="0 0 14 19" version="1.1" xmlns="http://www.w3.org/2000/svg" xmlns:xlink="http://www.w3.org/1999/xlink">
    <title>pinterest</title>
    <g id="Symbols" stroke="none" stroke-width="1" fill="none" fill-rule="evenodd">
        <g id="Footer---1" transform="translate(-1279.000000, -466.000000)" fill="#FFFFFF" fill-rule="nonzero">
            <g id="Group-4" transform="translate(135.000000, 219.156854)">
                <g id="Group-2" transform="translate(1045.000000, 238.000000)">
                    <g id="pinterest" transform="translate(99.250000, 9.478553)">
                        <path d="M7.1718579,0 C3.56484898,0 0,2.4046955 0,6.29645563 C0,8.77146346 1.39217045,10.1777101 2.23591844,10.1777101 C2.58397821,10.1777101 2.78437523,9.20741366 2.78437523,8.93316809 C2.78437523,8.60622261 1.95116722,7.91013739 1.95116722,6.54958689 C1.95116722,3.72305173 4.10273146,1.71915026 6.88710669,1.71915026 C9.28122787,1.71915026 11.0531124,3.07966642 11.0531124,5.57929044 C11.0531124,7.44606913 10.3042586,10.9476439 7.87848311,10.9476439 C7.00311517,10.9476439 6.2542957,10.3148329 6.2542957,9.40777634 C6.2542957,8.07888012 7.18239788,6.79217817 7.18239788,5.42108769 C7.18239788,3.09374262 3.88125448,3.51561662 3.88125448,6.32810991 C3.88125448,6.91872664 3.9550687,7.57265193 4.21873994,8.1105344 C3.73359171,10.1987901 2.74218096,13.3101108 2.74218096,15.461675 C2.74218096,16.1261403 2.83710948,16.7800313 2.90038371,17.4444965 C3.01992841,17.5780831 2.96015606,17.5640069 3.14297499,17.4972308 C4.91482517,15.0714553 4.85155093,14.5968471 5.65310466,11.4222521 C6.08551863,12.2448858 7.20351218,12.6878741 8.08942011,12.6878741 C11.8230118,12.6878741 13.4999678,9.04921091 13.4999678,5.76911314 C13.4999678,2.2781127 10.4835756,0 7.1718579,0 Z" id="Path"></path>
                    </g>
                </g>
            </g>
        </g>
    </g>
</svg>