<?xml version="1.0" encoding="UTF-8"?>
<svg width="17px" height="13px" viewBox="0 0 17 13" version="1.1" xmlns="http://www.w3.org/2000/svg" xmlns:xlink="http://www.w3.org/1999/xlink">
    <title>envelope</title>
    <g id="Designs" stroke="none" stroke-width="1" fill="none" fill-rule="evenodd">
        <g id="Fabric-Detail---Desktop" transform="translate(-136.000000, -626.000000)" fill="#4E4E4E" fill-rule="nonzero">
            <g id="envelope" transform="translate(136.356366, 626.944995)">
                <path d="M14.4999654,0 L1.5,0 C0.671568223,0 0,0.671568223 0,1.5 L0,10.499975 C0,11.3284032 0.671568223,11.9999714 1.5,11.9999714 L14.4999654,11.9999714 C15.3283936,11.9999714 15.9999619,11.3284032 15.9999619,10.499975 L15.9999619,1.5 C15.9999619,0.671568223 15.3283936,0 14.4999654,0 Z M14.4999654,1.49999642 L14.4999654,2.77513987 C13.7992835,3.34575618 12.6822207,4.23299162 10.2941344,6.10295176 C9.76786001,6.51692172 8.72535151,7.5114567 7.99998093,7.49986005 C7.27473241,7.51157877 6.23188822,6.51676913 5.70582746,6.10295176 C3.31810732,4.23326627 2.2007699,3.34584774 1.49999642,2.77513987 L1.49999642,1.49999642 L14.4999654,1.49999642 Z M1.49999642,10.499975 L1.49999642,4.69993997 C2.21605917,5.27028162 3.23152916,6.0706032 4.779316,7.28260593 C5.46232829,7.82026334 6.65849243,9.00718067 7.99998093,8.99994802 C9.33487765,9.00718067 10.5158746,7.83747521 11.2203712,7.28285007 C12.7681275,6.07087786 13.7838722,5.27034266 14.4999654,4.69993997 L14.4999654,10.499975 L1.49999642,10.499975 Z" id="Shape"></path>
            </g>
        </g>
    </g>
</svg>