<?xml version="1.0" encoding="UTF-8"?>
<svg width="16px" height="17px" viewBox="0 0 16 17" version="1.1" xmlns="http://www.w3.org/2000/svg" xmlns:xlink="http://www.w3.org/1999/xlink">
    <title>instagram</title>
    <g id="Symbols" stroke="none" stroke-width="1" fill="none" fill-rule="evenodd">
        <g id="Group-2-Copy" transform="translate(-10.000000, -9.843146)" fill="#FFFFFF" fill-rule="nonzero">
            <g id="instagram" transform="translate(10.122374, 10.368881)">
                <path d="M7.88110952,3.83817616 C5.64519108,3.83817616 3.84168663,5.64168062 3.84168663,7.87763339 C3.84168663,10.1135518 5.64519108,11.9170563 7.88110952,11.9170563 C10.1170623,11.9170563 11.9205667,10.1135518 11.9205667,7.87763339 C11.9205667,5.64168062 10.1170623,3.83817616 7.88110952,3.83817616 Z M7.88110952,10.5037715 C6.43620482,10.5037715 5.25497137,9.32603997 5.25497137,7.87763339 C5.25497137,6.42919247 6.43270294,5.25146091 7.88110952,5.25146091 C9.32955043,5.25146091 10.507282,6.42919247 10.507282,7.87763339 C10.507282,9.32603997 9.32604855,10.5037715 7.88110952,10.5037715 Z M13.027986,3.67293531 C13.027986,3.15263092 12.606112,2.73075692 12.0858076,2.73075692 C11.5655032,2.73075692 11.1436292,3.15263092 11.1436292,3.67293531 C11.1436292,4.1932397 11.561967,4.6151137 12.0858076,4.6151137 C12.606112,4.6151137 13.027986,4.19677592 13.027986,3.67293531 Z M15.7033565,4.6291899 C15.6436185,3.3670698 15.3553311,2.24911058 14.4307307,1.32801216 C13.5096323,0.406948073 12.3916731,0.118660644 11.129553,0.0553864112 C9.82877486,-0.0184621371 5.9299423,-0.0184621371 4.62916415,0.0553864112 C3.37058027,0.115124428 2.25262105,0.403411857 1.32802074,1.32451028 C0.40342044,2.2456087 0.118634895,3.36356792 0.0553606621,4.62568801 C-0.018453554,5.92646616 -0.018453554,9.82526439 0.0553606621,11.1260425 C0.115133011,12.3881626 0.40342044,13.5061219 1.32802074,14.4272203 C2.25262105,15.3483187 3.36707838,15.6365718 4.62916415,15.6998804 C5.9299423,15.7736946 9.82877486,15.7736946 11.129553,15.6998804 C12.3916731,15.640108 13.5096323,15.3518206 14.4307307,14.4272203 C15.3517948,13.5061219 15.6400823,12.3881626 15.7033565,11.1260425 C15.777205,9.82526439 15.777205,5.92996805 15.7033565,4.6291899 Z M14.0228986,12.5217492 C13.7486874,13.2107963 13.217843,13.741675 12.5252597,14.0193882 C11.4881528,14.4307222 9.02722114,14.3357936 7.88110952,14.3357936 C6.73503224,14.3357936 4.27059872,14.4272203 3.2369937,14.0193882 C2.54794658,13.7451769 2.01706787,13.2143325 1.73935476,12.5217492 C1.32802074,11.4846423 1.42294926,9.02371067 1.42294926,7.87763339 C1.42294926,6.73152177 1.33152263,4.26708825 1.73935476,3.23348323 C2.01356598,2.54443611 2.54441036,2.0135574 3.2369937,1.73584429 C4.2741006,1.32451028 6.73503224,1.41943879 7.88110952,1.41943879 C9.02722114,1.41943879 11.4916547,1.32801216 12.5252597,1.73584429 C13.2143068,2.01005552 13.7451855,2.54089989 14.0228986,3.23348323 C14.4342326,4.27059014 14.3393041,6.73152177 14.3393041,7.87763339 C14.3393041,9.02371067 14.4342326,11.4881442 14.0228986,12.5217492 Z" id="Shape"></path>
            </g>
        </g>
    </g>
</svg>