<?xml version="1.0" encoding="UTF-8"?>
<svg width="16px" height="17px" viewBox="0 0 16 17" version="1.1" xmlns="http://www.w3.org/2000/svg" xmlns:xlink="http://www.w3.org/1999/xlink">
    <title>linkedin</title>
    <g id="Symbols" stroke="none" stroke-width="1" fill="none" fill-rule="evenodd">
        <g id="Group-2-Copy" transform="translate(-98.000000, -8.843146)" fill="#FFFFFF" fill-rule="nonzero">
            <g id="linkedin" transform="translate(98.125000, 9.250381)">
                <path d="M3.52546996,15.7496191 L3.52546996,5.23442356 L0.260169363,5.23442356 L0.260169363,15.7496191 L3.52546996,15.7496191 Z M1.89105155,3.80002451 C2.93485323,3.80002451 3.7821031,2.93519655 3.7821031,1.89105155 C3.7821031,0.847352869 2.93475024,0 1.89105155,0 C0.847352869,0 0,0.847352869 0,1.89105155 C0,2.93519655 0.84690655,3.80002451 1.89105155,3.80002451 Z M15.7464606,15.7496191 L15.7499624,15.7496191 L15.7499624,9.97346789 C15.7499624,7.1468984 15.1424543,4.97075231 11.8377747,4.97075231 C10.2490867,4.97075231 9.18420509,5.84261836 8.7482549,6.66878827 L8.70255875,6.66878827 L8.70255875,5.23442356 L5.57084472,5.23442356 L5.57084472,15.7496191 L8.83264343,15.7496191 L8.83264343,10.5430046 C8.83264343,9.17191417 9.09277846,7.84651984 10.7904711,7.84651984 C12.4635476,7.84651984 12.4881637,9.41096923 12.4881637,10.6308951 L12.4881637,15.7496191 L15.7464606,15.7496191 Z" id="Shape"></path>
            </g>
        </g>
    </g>
</svg>