<?xml version="1.0" encoding="UTF-8"?>
<svg width="20px" height="20px" viewBox="0 0 20 20" version="1.1" xmlns="http://www.w3.org/2000/svg" xmlns:xlink="http://www.w3.org/1999/xlink">
    <title>pause</title>
    <g id="Designs" stroke="none" stroke-width="1" fill="none" fill-rule="evenodd">
        <g id="pause" transform="translate(0.812500, 0.896525)" fill="#FFFFFF" fill-rule="nonzero">
            <path d="M5.90623592,18.3749562 C6.99314739,18.3749562 7.87498122,17.4931224 7.87498122,16.4062109 L7.87498122,1.96874531 C7.87498122,0.881833835 6.99314739,0 5.90623592,0 L1.96874531,0 C0.881833835,0 0,0.881833835 0,1.96874531 L0,16.4062109 C0,17.4931224 0.881833835,18.3749562 1.96874531,18.3749562 L5.90623592,18.3749562 Z M18.3749562,16.4062109 L18.3749562,1.96874531 C18.3749562,0.881833835 17.4931224,0 16.4062109,0 L12.4687203,0 C11.3818088,0 10.499975,0.881833835 10.499975,1.96874531 L10.499975,16.4062109 C10.499975,17.4931224 11.3818088,18.3749562 12.4687203,18.3749562 L16.4062109,18.3749562 C17.4931224,18.3749562 18.3749562,17.4931224 18.3749562,16.4062109 Z" id="Shape"></path>
        </g>
    </g>
</svg>