<?xml version="1.0" encoding="UTF-8"?>
<svg width="17px" height="17px" viewBox="0 0 17 17" version="1.1" xmlns="http://www.w3.org/2000/svg" xmlns:xlink="http://www.w3.org/1999/xlink">
    <title>print</title>
    <g id="Designs" stroke="none" stroke-width="1" fill="none" fill-rule="evenodd">
        <g id="Fabric-Detail---Desktop" transform="translate(-181.000000, -624.000000)" fill="#4E4E4E" fill-rule="nonzero">
            <g id="print" transform="translate(181.356366, 624.945000)">
                <path d="M12.4999702,8.24998033 C12.0859087,8.24998033 11.749972,8.58561185 11.749972,8.99997854 C11.749972,9.41404006 12.0859087,9.74998033 12.4999702,9.74998033 C12.9140317,9.74998033 13.249972,9.41404006 13.249972,8.99997854 C13.249972,8.58561185 12.9140317,8.24998033 12.4999702,8.24998033 Z M13.4999678,5.49998689 L13.4999678,3.1212389 C13.4999678,2.72344321 13.3418566,2.34188284 13.0606073,2.06063351 L11.4393343,0.439360525 C11.158085,0.158111195 10.7765246,0 10.3787289,0 L3.45250642,0 C2.92623204,0 2.5,0.447813874 2.5,1 L2.5,5.49998689 C1.1193821,5.49998689 0,6.61936898 0,7.99998093 L0,11.9999714 C0,12.2762158 0.223754349,12.4999702 0.5,12.4999702 L2.5,12.4999702 L2.5,15.499963 C2.5,15.7762075 2.72374839,15.9999619 3,15.9999619 L12.999969,15.9999619 C13.2762135,15.9999619 13.4999678,15.7762075 13.4999678,15.499963 L13.4999678,12.4999702 L15.499963,12.4999702 C15.7762075,12.4999702 15.9999619,12.2762158 15.9999619,11.9999714 L15.9999619,7.99998093 C15.9999619,6.61936898 14.8805798,5.49998689 13.4999678,5.49998689 Z M3.99999046,1.49999642 L9.99997616,1.49999642 L9.99997616,2.99999642 C9.99997616,3.27623731 10.2237305,3.49999642 10.499975,3.49999642 L11.9999714,3.49999642 L11.9999714,5.49999642 L3.99999046,5.49999642 L3.99999046,1.49999642 Z M11.9999714,14.4999702 L3.99999046,14.4999702 L3.99999046,12.4999702 L11.9999714,12.4999702 L11.9999714,14.4999702 Z M14.4999654,10.9999833 L1.49999642,10.9999833 L1.49999642,7.99998331 C1.49999642,7.44874323 1.94875634,6.99998331 2.49999642,6.99998331 L13.4999678,6.99998331 C14.0512055,6.99998331 14.4999654,7.44874323 14.4999654,7.99998331 L14.4999654,10.9999833 Z" id="Shape"></path>
            </g>
        </g>
    </g>
</svg>