<?xml version="1.0" encoding="UTF-8"?>
<svg width="16px" height="17px" viewBox="0 0 16 17" version="1.1" xmlns="http://www.w3.org/2000/svg" xmlns:xlink="http://www.w3.org/1999/xlink">
    <title>rss</title>
    <g id="Symbols" stroke="none" stroke-width="1" fill="none" fill-rule="evenodd">
        <g id="Group-2-Copy" transform="translate(-54.000000, -9.843146)" fill="#FFFFFF" fill-rule="nonzero">
            <g id="rss" transform="translate(54.125000, 10.375012)">
                <path d="M4.50283884,13.4985483 C4.50283884,12.2551392 3.49487997,11.2471117 2.25143659,11.2471117 C1.0079932,11.2471117 0,12.2551049 0,13.4985483 C0,14.7419917 1.00795887,15.7499849 2.25140226,15.7499849 C3.49484564,15.7499849 4.50283884,14.7419917 4.50283884,13.4985483 Z M10.6783765,15.1596771 C10.3846646,9.72454758 6.03123944,5.36562929 0.590307736,5.07160838 C0.269164397,5.05423629 0,5.31231139 0,5.63390105 L0,7.32383461 C0,7.61967512 0.228171758,7.86775955 0.523359958,7.88695125 C4.45494543,8.14303508 7.60640047,11.2866281 7.86299929,15.2265906 C7.88222532,15.5217788 8.13030975,15.7499505 8.42611593,15.7499505 L10.1160495,15.7499505 C10.4376735,15.7499505 10.6957486,15.4808205 10.6783765,15.1596771 Z M15.7496191,15.1698051 C15.4544996,6.94957937 8.84053984,0.296927232 0.580179739,0.000365744387 C0.262709945,-0.0110325439 0,0.245463274 0,0.563070396 L0,2.25296963 C0,2.55619156 0.240291023,2.80297137 0.543272631,2.81543395 C7.26438316,3.09101847 12.6590351,8.48670034 12.9345853,15.2067466 C12.9470135,15.5097282 13.1937933,15.7500192 13.4970496,15.7500192 L15.1869488,15.7500192 C15.5045216,15.7500192 15.7610174,15.4872749 15.7496191,15.1698051 Z" id="Shape"></path>
            </g>
        </g>
    </g>
</svg>