<svg width="14" height="15" fill="none" xmlns="http://www.w3.org/2000/svg"><path d="M13.89 13.93l-3.527-3.528a.31.31 0 00-.218-.082h-.301c.957-1.039 1.531-2.379 1.531-3.883C11.375 3.32 8.805.75 5.687.75 2.543.75 0 3.32 0 6.438a5.683 5.683 0 005.688 5.687 5.708 5.708 0 003.855-1.504v.274c0 .109.027.19.082.246l3.527 3.527a.315.315 0 00.465 0l.274-.273a.315.315 0 000-.465zm-8.203-2.68A4.785 4.785 0 01.875 6.437a4.802 4.802 0 014.813-4.812A4.82 4.82 0 0110.5 6.438c0 2.68-2.16 4.812-4.813 4.812z" fill="#30312E"/></svg>