<?xml version="1.0" encoding="UTF-8"?>
<svg width="19px" height="16px" viewBox="0 0 19 16" version="1.1" xmlns="http://www.w3.org/2000/svg" xmlns:xlink="http://www.w3.org/1999/xlink">
    <title>shopping-cart</title>
    <g id="Symbols" stroke="none" stroke-width="1" fill="none" fill-rule="evenodd">
        <g id="Header---Logged-In" transform="translate(-1056.000000, -34.000000)" fill="#4E4E4E" fill-rule="nonzero">
            <g id="shopping-cart" transform="translate(1056.500000, 34.000033)">
                <path d="M17.2496842,2 L4.03999891,2 L3.77971511,0.61178443 C3.71318695,0.257048948 3.40346479,0 3.04256477,0 L0.374999106,0 C0.167907315,0 0,0.167907315 0,0.374999106 L0,0.62499851 C0,0.832090301 0.167907315,1 0.374999106,1 L2.8349847,1 L5.02022119,12.6545414 C4.69701029,13.0097956 4.49998927,13.4818404 4.49998927,13.9999666 C4.49998927,15.1045172 5.39543391,15.9999619 6.4999845,15.9999619 C7.60453509,15.9999619 8.49997973,15.1045172 8.49997973,13.9999666 L8.49997973,13.9977083 C8.49997973,13.6350993 8.40149974,13.2929065 8.23176138,12.999969 L12.7682191,12.999969 C12.5984807,13.2929065 12.5012519,13.6329936 12.5012519,13.9956331 C12.5012519,13.9963656 12.5,13.9992037 12.5,13.9999666 C12.5,15.1045172 13.3954454,15.9999619 14.5,15.9999619 C15.6045465,15.9999619 16.5,15.1045172 16.5,13.9999666 C16.5,13.4376816 16.2676614,12.9299618 15.8941271,12.5665899 C15.8131642,12.2465528 15.5237057,11.9999714 15.1664677,11.9999714 L5.91499444,11.9999714 L5.53999534,9.99997616 L15.8956225,9.99997616 C16.2508768,9.99997616 16.5573946,9.75073969 16.6298737,9.40293168 L17.9839659,2.90294718 C18.0809505,2.43721953 17.7254216,2 17.2496842,2 Z M7.49998689,13.999969 C7.49998689,14.5513569 7.05137479,14.999969 6.49998689,14.999969 C5.94859422,14.999969 5.49998689,14.5513569 5.49998689,13.999969 C5.49998689,13.4485763 5.94859422,12.999969 6.49998689,12.999969 C7.05137479,12.999969 7.49998689,13.4485763 7.49998689,13.999969 Z M14.4999678,14.999969 C13.9485751,14.999969 13.4999678,14.5513569 13.4999678,13.999969 C13.4999678,13.4485763 13.9485751,12.999969 14.4999678,12.999969 C15.0513557,12.999969 15.4999678,13.4485763 15.4999678,13.999969 C15.4999678,14.5513569 15.0513557,14.999969 14.4999678,14.999969 Z M15.6923454,8.99997854 L5.35249578,8.99997854 L4.22749847,2.99999285 L16.9423424,2.99999285 L15.6923454,8.99997854 Z" id="Shape"></path>
            </g>
        </g>
    </g>
</svg>