<?xml version="1.0" encoding="UTF-8"?>
<svg width="19px" height="14px" viewBox="0 0 19 14" version="1.1" xmlns="http://www.w3.org/2000/svg" xmlns:xlink="http://www.w3.org/1999/xlink">
    <title>sign-in</title>
    <g id="Symbols" stroke="none" stroke-width="1" fill="none" fill-rule="evenodd">
        <g id="Header---Logged-Out" transform="translate(-1241.000000, -36.000000)" fill="#4E4E4E" fill-rule="nonzero">
            <g id="Group-2" transform="translate(1241.500000, 32.000000)">
                <g id="sign-in" transform="translate(0.000000, 4.500032)">
                    <path d="M6.46873458,0.685545241 C6.30349373,0.520304393 6.0363206,0.520304393 5.87458164,0.685545241 L5.62498659,0.935140288 C5.45974574,1.10038114 5.45974574,1.3675886 5.62498659,1.53279511 L10.2620986,6.15232908 L0.421873994,6.15232908 C0.18985703,6.15232908 0,6.34218611 0,6.57420308 L0,6.92576474 C0,7.1577817 0.18985703,7.34763873 0.421873994,7.34763873 L10.2620986,7.34763873 L5.62148471,11.9671727 C5.45624386,12.1323792 5.45624386,12.3995867 5.62148471,12.5648275 L5.87107975,12.8144226 C6.0363206,12.9796634 6.30349373,12.9796634 6.46873458,12.8144226 L12.2519239,7.04881132 C12.4171648,6.88357047 12.4171648,6.61639734 12.2519239,6.45115649 L6.46873458,0.685545241 Z M17.9999571,11.8124718 L17.9999571,1.68749598 C17.9999571,0.755857573 17.2440995,0 16.3124611,0 L11.6718472,0 C11.4398302,0 11.2499732,0.18985703 11.2499732,0.421873994 L11.2499732,0.703123324 C11.2499732,0.935140288 11.4398302,1.12499732 11.6718472,1.12499732 L16.3124611,1.12499732 C16.6218285,1.12499732 16.8749598,1.37812858 16.8749598,1.68749598 L16.8749598,11.8124718 C16.8749598,12.1218392 16.6218285,12.3749705 16.3124611,12.3749705 L11.6718472,12.3749705 C11.4398302,12.3749705 11.2499732,12.5648275 11.2499732,12.7968445 L11.2499732,13.0780938 C11.2499732,13.3101108 11.4398302,13.4999678 11.6718472,13.4999678 L16.3124611,13.4999678 C17.2440995,13.4999678 17.9999571,12.7441102 17.9999571,11.8124718 Z" id="Shape"></path>
                </g>
            </g>
        </g>
    </g>
</svg>