<?xml version="1.0" encoding="UTF-8"?>
<svg width="18px" height="15px" viewBox="0 0 18 15" version="1.1" xmlns="http://www.w3.org/2000/svg" xmlns:xlink="http://www.w3.org/1999/xlink">
    <title>twitter</title>
    <g id="Symbols" stroke="none" stroke-width="1" fill="none" fill-rule="evenodd">
        <g id="Footer---1" transform="translate(-1233.000000, -468.000000)" fill="#FFFFFF" fill-rule="nonzero">
            <g id="Group-4" transform="translate(135.000000, 219.156854)">
                <g id="Group-2" transform="translate(1045.000000, 238.000000)">
                    <g id="twitter" transform="translate(53.000000, 10.940417)">
                        <path d="M16.1496922,3.64336671 C16.8692263,3.11798115 17.4974368,2.4669741 17.9998884,1.7360417 C17.3374831,2.02154822 16.617949,2.22716373 15.8755496,2.30708907 C16.6407455,1.85026491 17.2232255,1.13073079 17.4973681,0.274108233 C16.7891979,0.696703203 15.9897385,1.00507497 15.1560155,1.16495999 C14.4821089,0.445425879 13.5227644,0 12.4605607,0 C10.4161815,0 8.77149779,1.65608202 8.77149779,3.68906286 C8.77149779,3.97460371 8.80576132,4.26011023 8.86285576,4.53421847 C5.80200338,4.37429911 3.072285,2.91239998 1.25631796,0.673837963 C0.936479243,1.22205443 0.753797641,1.85023057 0.753797641,2.53550116 C0.753797641,3.81468436 1.40477036,4.94538082 2.39841271,5.60782049 C1.79313614,5.58502392 1.2220201,5.41370627 0.7309324,5.13959804 L0.7309324,5.18525985 C0.7309324,6.97839599 1.99871731,8.46312603 3.68906286,8.80579566 C3.38072543,8.885721 3.04948843,8.93141715 2.71828576,8.93141715 C2.47840672,8.93141715 2.24999464,8.90858624 2.02154822,8.87432271 C2.48983934,10.3362562 3.84898222,11.3984256 5.47080071,11.4327234 C4.2030158,12.4263658 2.6154265,13.0088458 0.890851758,13.0088458 C0.582479996,13.0088458 0.296973474,12.9974132 0,12.963184 C1.63325111,14.0138864 3.57483965,14.6192317 5.66494926,14.6192317 C12.449231,14.6192317 16.1611248,8.99994421 16.1611248,4.12309045 C16.1611248,3.96320543 16.1611248,3.80325174 16.1496922,3.64336671 Z" id="Path"></path>
                    </g>
                </g>
            </g>
        </g>
    </g>
</svg>