<?xml version="1.0" encoding="UTF-8"?>
<svg width="17px" height="19px" viewBox="0 0 17 19" version="1.1" xmlns="http://www.w3.org/2000/svg" xmlns:xlink="http://www.w3.org/1999/xlink">
    <title>user</title>
    <g id="Symbols" stroke="none" stroke-width="1" fill="none" fill-rule="evenodd">
        <g id="Header---Logged-In" transform="translate(-1134.000000, -34.000000)" fill="#4E4E4E" fill-rule="nonzero">
            <g id="user" transform="translate(1134.500000, 34.250038)">
                <path d="M11.02496,10.1249759 C10.0160055,10.1249759 9.53082292,10.6874745 7.87498122,10.6874745 C6.21913953,10.6874745 5.73749319,10.1249759 4.72500247,10.1249759 C2.11640807,10.1249759 0,12.2413839 0,14.8499783 L0,16.3124611 C0,17.2440995 0.755857573,17.9999571 1.68749598,17.9999571 L14.0624665,17.9999571 C14.9941049,17.9999571 15.7499624,17.2440995 15.7499624,16.3124611 L15.7499624,14.8499783 C15.7499624,12.2413839 13.6335544,10.1249759 11.02496,10.1249759 Z M14.6249651,16.3124611 C14.6249651,16.6218285 14.3718339,16.8749598 14.0624665,16.8749598 L1.68749598,16.8749598 C1.37812858,16.8749598 1.12499732,16.6218285 1.12499732,16.3124611 L1.12499732,14.8499783 C1.12499732,12.8636549 2.73867908,11.2499732 4.72500247,11.2499732 C5.41404959,11.2499732 6.09959483,11.8124718 7.87498122,11.8124718 C9.64686573,11.8124718 10.3359129,11.2499732 11.02496,11.2499732 C13.0112834,11.2499732 14.6249651,12.8636549 14.6249651,14.8499783 L14.6249651,16.3124611 Z M7.87498122,8.99997854 C10.360529,8.99997854 12.3749705,6.98553709 12.3749705,4.49998927 C12.3749705,2.01444146 10.360529,0 7.87498122,0 C5.38943341,0 3.37499195,2.01444146 3.37499195,4.49998927 C3.37499195,6.98553709 5.38943341,8.99997854 7.87498122,8.99997854 Z M7.87498122,1.12499732 C9.73475615,1.12499732 11.2499732,2.64021435 11.2499732,4.49998927 C11.2499732,6.3597642 9.73475615,7.87498122 7.87498122,7.87498122 C6.0152063,7.87498122 4.49998927,6.3597642 4.49998927,4.49998927 C4.49998927,2.64021435 6.0152063,1.12499732 7.87498122,1.12499732 Z" id="Shape"></path>
            </g>
        </g>
    </g>
</svg>