<svg width="18" height="19" viewBox="0 0 18 19" fill="none" xmlns="http://www.w3.org/2000/svg">
<path d="M9.27344 18.0938L9.54688 17.8203C9.74219 17.625 9.74219 17.3516 9.54688 17.1562L2.59375 10.1641H17.2812C17.5156 10.1641 17.75 9.96875 17.75 9.69531V9.30469C17.75 9.07031 17.5156 8.83594 17.2812 8.83594H2.59375L9.54688 1.88281C9.74219 1.6875 9.74219 1.41406 9.54688 1.21875L9.27344 0.945312C9.07812 0.75 8.80469 0.75 8.60938 0.945312L0.367188 9.1875C0.171875 9.38281 0.171875 9.65625 0.367188 9.85156L8.60938 18.0938C8.80469 18.2891 9.07812 18.2891 9.27344 18.0938Z" fill="#30312E"/>
</svg>
