<svg width="18" height="19" viewBox="0 0 18 19" fill="none" xmlns="http://www.w3.org/2000/svg">
<path d="M8.6875 0.945312L8.41406 1.21875C8.21875 1.41406 8.21875 1.6875 8.41406 1.88281L15.3672 8.83594H0.71875C0.445312 8.83594 0.25 9.07031 0.25 9.30469V9.69531C0.25 9.96875 0.445312 10.1641 0.71875 10.1641H15.3672L8.41406 17.1562C8.21875 17.3516 8.21875 17.625 8.41406 17.8203L8.6875 18.0938C8.88281 18.2891 9.15625 18.2891 9.35156 18.0938L17.5938 9.85156C17.7891 9.65625 17.7891 9.38281 17.5938 9.1875L9.35156 0.945312C9.15625 0.75 8.88281 0.75 8.6875 0.945312Z" fill="#30312E"/>
</svg>
