<svg width="18" height="19" viewBox="0 0 18 19" fill="none" xmlns="http://www.w3.org/2000/svg">
<path d="M17.5547 9.22656L17.2812 8.95312C17.0859 8.75781 16.8125 8.75781 16.6172 8.95312L9.66406 15.9062V1.21875C9.66406 0.984375 9.42969 0.75 9.19531 0.75H8.80469C8.53125 0.75 8.33594 0.984375 8.33594 1.21875V15.9062L1.34375 8.95312C1.14844 8.75781 0.875 8.75781 0.679688 8.95312L0.40625 9.22656C0.210938 9.42188 0.210938 9.69531 0.40625 9.89062L8.64844 18.1328C8.84375 18.3281 9.11719 18.3281 9.3125 18.1328L17.5547 9.89062C17.75 9.69531 17.75 9.42188 17.5547 9.22656Z" fill="#30312E"/>
</svg>
