<svg width="18" height="19" viewBox="0 0 18 19" fill="none" xmlns="http://www.w3.org/2000/svg">
<path d="M0.40625 9.8125L0.679688 10.0859C0.875 10.2812 1.14844 10.2812 1.34375 10.0859L8.33594 3.13281V17.7812C8.33594 18.0547 8.53125 18.25 8.80469 18.25H9.19531C9.42969 18.25 9.66406 18.0547 9.66406 17.7812V3.13281L16.6172 10.0859C16.8125 10.2812 17.0859 10.2812 17.2812 10.0859L17.5547 9.8125C17.75 9.61719 17.75 9.34375 17.5547 9.14844L9.3125 0.90625C9.11719 0.710938 8.84375 0.710938 8.64844 0.90625L0.40625 9.14844C0.210938 9.34375 0.210938 9.61719 0.40625 9.8125Z" fill="#30312E"/>
</svg>
