<svg width="25" height="18" viewBox="0 0 25 18" fill="none" xmlns="http://www.w3.org/2000/svg">
<path d="M24 5.95312C22.9219 6.79688 21.5625 7.82812 16.7812 11.2969C15.8438 12 14.1094 13.5469 12.4688 13.5469C10.7812 13.5469 9.09375 12 8.10938 11.2969C3.32812 7.82812 1.96875 6.79688 0.890625 5.95312C0.703125 5.8125 0.46875 5.95312 0.46875 6.1875V15.75C0.46875 17.0156 1.45312 18 2.71875 18H22.2188C23.4375 18 24.4688 17.0156 24.4688 15.75V6.1875C24.4688 5.95312 24.1875 5.8125 24 5.95312ZM12.4688 12C13.5469 12.0469 15.0938 10.6406 15.8906 10.0781C22.125 5.57812 22.5938 5.15625 24 4.03125C24.2812 3.84375 24.4688 3.51562 24.4688 3.14062V2.25C24.4688 1.03125 23.4375 0 22.2188 0H2.71875C1.45312 0 0.46875 1.03125 0.46875 2.25V3.14062C0.46875 3.51562 0.609375 3.84375 0.890625 4.03125C2.29688 5.15625 2.76562 5.57812 9 10.0781C9.79688 10.6406 11.3438 12.0469 12.4688 12Z" fill="#30312E"/>
</svg>
