<svg width="11" height="15" viewBox="0 0 11 15" fill="none" xmlns="http://www.w3.org/2000/svg">
<path d="M10.0898 3.42969L7.82031 1.13281C7.57422 0.886719 7.21875 0.75 6.89062 0.75H1.3125C0.574219 0.75 0 1.35156 0 2.0625V13.4375C0 14.1758 0.574219 14.75 1.3125 14.75H9.1875C9.89844 14.75 10.5 14.1758 10.5 13.4375V4.35938C10.5 4.03125 10.3359 3.67578 10.0898 3.42969ZM9.48828 4.05859C9.54297 4.11328 9.57031 4.19531 9.59766 4.25H7V1.65234C7.05469 1.67969 7.13672 1.70703 7.19141 1.76172L9.48828 4.05859ZM9.1875 13.875H1.3125C1.06641 13.875 0.875 13.6836 0.875 13.4375V2.0625C0.875 1.84375 1.06641 1.625 1.3125 1.625H6.125V4.46875C6.125 4.85156 6.39844 5.125 6.78125 5.125H9.625V13.4375C9.625 13.6836 9.40625 13.875 9.1875 13.875ZM7.875 7.20312C7.875 7.03906 7.71094 6.875 7.54688 6.875H2.95312C2.76172 6.875 2.625 7.03906 2.625 7.20312V7.42188C2.625 7.61328 2.76172 7.75 2.95312 7.75H7.54688C7.71094 7.75 7.875 7.61328 7.875 7.42188V7.20312ZM7.875 8.95312C7.875 8.78906 7.71094 8.625 7.54688 8.625H2.95312C2.76172 8.625 2.625 8.78906 2.625 8.95312V9.17188C2.625 9.36328 2.76172 9.5 2.95312 9.5H7.54688C7.71094 9.5 7.875 9.36328 7.875 9.17188V8.95312ZM7.875 10.7031C7.875 10.5391 7.71094 10.375 7.54688 10.375H2.95312C2.76172 10.375 2.625 10.5391 2.625 10.7031V10.9219C2.625 11.1133 2.76172 11.25 2.95312 11.25H7.54688C7.71094 11.25 7.875 11.1133 7.875 10.9219V10.7031Z" fill="#30312E"/>
</svg>
