<svg width="21" height="22" viewBox="0 0 21 22" fill="none" xmlns="http://www.w3.org/2000/svg">
<path d="M10.5234 5.23438C7.52344 5.23438 5.13281 7.67188 5.13281 10.625C5.13281 13.625 7.52344 16.0156 10.5234 16.0156C13.4766 16.0156 15.9141 13.625 15.9141 10.625C15.9141 7.67188 13.4766 5.23438 10.5234 5.23438ZM10.5234 14.1406C8.60156 14.1406 7.00781 12.5938 7.00781 10.625C7.00781 8.70312 8.55469 7.15625 10.5234 7.15625C12.4453 7.15625 13.9922 8.70312 13.9922 10.625C13.9922 12.5938 12.4453 14.1406 10.5234 14.1406ZM17.3672 5.04688C17.3672 4.34375 16.8047 3.78125 16.1016 3.78125C15.3984 3.78125 14.8359 4.34375 14.8359 5.04688C14.8359 5.75 15.3984 6.3125 16.1016 6.3125C16.8047 6.3125 17.3672 5.75 17.3672 5.04688ZM20.9297 6.3125C20.8359 4.625 20.4609 3.125 19.2422 1.90625C18.0234 0.6875 16.5234 0.3125 14.8359 0.21875C13.1016 0.125 7.89844 0.125 6.16406 0.21875C4.47656 0.3125 3.02344 0.6875 1.75781 1.90625C0.539062 3.125 0.164062 4.625 0.0703125 6.3125C-0.0234375 8.04688 -0.0234375 13.25 0.0703125 14.9844C0.164062 16.6719 0.539062 18.125 1.75781 19.3906C3.02344 20.6094 4.47656 20.9844 6.16406 21.0781C7.89844 21.1719 13.1016 21.1719 14.8359 21.0781C16.5234 20.9844 18.0234 20.6094 19.2422 19.3906C20.4609 18.125 20.8359 16.6719 20.9297 14.9844C21.0234 13.25 21.0234 8.04688 20.9297 6.3125ZM18.6797 16.8125C18.3516 17.75 17.6016 18.4531 16.7109 18.8281C15.3047 19.3906 12.0234 19.25 10.5234 19.25C8.97656 19.25 5.69531 19.3906 4.33594 18.8281C3.39844 18.4531 2.69531 17.75 2.32031 16.8125C1.75781 15.4531 1.89844 12.1719 1.89844 10.625C1.89844 9.125 1.75781 5.84375 2.32031 4.4375C2.69531 3.54688 3.39844 2.84375 4.33594 2.46875C5.69531 1.90625 8.97656 2.04688 10.5234 2.04688C12.0234 2.04688 15.3047 1.90625 16.7109 2.46875C17.6016 2.79688 18.3047 3.54688 18.6797 4.4375C19.2422 5.84375 19.1016 9.125 19.1016 10.625C19.1016 12.1719 19.2422 15.4531 18.6797 16.8125Z" fill="#30312E"/>
</svg>
