<svg width="22" height="21" viewBox="0 0 22 21" fill="none" xmlns="http://www.w3.org/2000/svg">
<path d="M5.65625 21V6.98438H1.29688V21H5.65625ZM3.45312 5.10938C4.85938 5.10938 5.98438 3.9375 5.98438 2.53125C5.98438 1.17188 4.85938 0.046875 3.45312 0.046875C2.09375 0.046875 0.96875 1.17188 0.96875 2.53125C0.96875 3.9375 2.09375 5.10938 3.45312 5.10938ZM21.9688 21V13.3125C21.9688 9.5625 21.125 6.65625 16.7188 6.65625C14.6094 6.65625 13.2031 7.82812 12.5938 8.90625H12.5469V6.98438H8.375V21H12.7344V14.0625C12.7344 12.2344 13.0625 10.5 15.3125 10.5C17.5625 10.5 17.6094 12.5625 17.6094 14.2031V21H21.9688Z" fill="#30312E"/>
</svg>
