<svg width="22" height="22" viewBox="0 0 22 22" fill="none" xmlns="http://www.w3.org/2000/svg">
<path d="M19.5234 0.125H1.47656C0.679688 0.125 0.0234375 0.828125 0.0234375 1.67188V19.625C0.0234375 20.4688 0.679688 21.125 1.47656 21.125H19.5234C20.3203 21.125 21.0234 20.4688 21.0234 19.625V1.67188C21.0234 0.828125 20.3203 0.125 19.5234 0.125ZM6.35156 18.125H3.25781V8.14062H6.35156V18.125ZM4.80469 6.73438C3.77344 6.73438 2.97656 5.9375 2.97656 4.95312C2.97656 3.96875 3.77344 3.125 4.80469 3.125C5.78906 3.125 6.58594 3.96875 6.58594 4.95312C6.58594 5.9375 5.78906 6.73438 4.80469 6.73438ZM18.0234 18.125H14.8828V13.25C14.8828 12.125 14.8828 10.625 13.2891 10.625C11.6484 10.625 11.4141 11.8906 11.4141 13.2031V18.125H8.32031V8.14062H11.2734V9.5H11.3203C11.7422 8.70312 12.7734 7.85938 14.2734 7.85938C17.4141 7.85938 18.0234 9.96875 18.0234 12.6406V18.125Z" fill="#30312E"/>
</svg>
