<svg width="15" height="15" viewBox="0 0 15 15" fill="none" xmlns="http://www.w3.org/2000/svg">
<path d="M14.3164 1.43359L11.582 0.777344C11.1719 0.695313 10.7617 0.886719 10.5977 1.26953L9.3125 4.25C9.17578 4.60547 9.25781 5.01562 9.55859 5.23438L11.0352 6.4375C10.1055 8.35156 8.57422 9.88281 6.66016 10.8125L5.45703 9.33594C5.23828 9.03516 4.82813 8.95312 4.47266 9.08984L1.49219 10.375C1.13672 10.5391 0.917969 10.9492 1 11.332L1.65625 14.0938C1.73828 14.4766 2.06641 14.75 2.47656 14.75C9.36719 14.75 15 9.17188 15 2.25391C15 1.84375 14.7266 1.51563 14.3164 1.43359ZM2.50391 13.875L1.875 11.168L4.80078 9.91016L6.44141 11.9062C9.25781 10.5664 10.7891 9.03516 12.1289 6.21875L10.1328 4.57813L11.3906 1.65234L14.0977 2.28125C14.0977 8.67969 8.90234 13.875 2.50391 13.875Z" fill="#30312E"/>
</svg>
