<svg width="24" height="24" viewBox="0 0 24 24" fill="none" xmlns="http://www.w3.org/2000/svg">
<path d="M23.2734 11.625C23.2734 5.20312 18.0703 0 11.6484 0C5.22656 0 0.0234375 5.20312 0.0234375 11.625C0.0234375 16.5938 3.07031 20.7656 7.38281 22.4531C7.28906 21.5625 7.19531 20.1562 7.42969 19.125C7.66406 18.2344 8.78906 13.3594 8.78906 13.3594C8.78906 13.3594 8.46094 12.6562 8.46094 11.625C8.46094 10.0312 9.39844 8.8125 10.5703 8.8125C11.5547 8.8125 12.0234 9.5625 12.0234 10.4531C12.0234 11.4375 11.3672 12.9375 11.0391 14.3438C10.8047 15.4688 11.6484 16.4062 12.7734 16.4062C14.8359 16.4062 16.4297 14.25 16.4297 11.1094C16.4297 8.29688 14.4141 6.375 11.6016 6.375C8.27344 6.375 6.35156 8.85938 6.35156 11.3906C6.35156 12.4219 6.72656 13.5 7.19531 14.0625C7.28906 14.1562 7.28906 14.2969 7.28906 14.3906C7.19531 14.7656 6.96094 15.5625 6.96094 15.7031C6.91406 15.9375 6.77344 15.9844 6.53906 15.8906C5.08594 15.1875 4.19531 13.0781 4.19531 11.3438C4.19531 7.6875 6.86719 4.3125 11.8828 4.3125C15.9141 4.3125 19.0547 7.21875 19.0547 11.0625C19.0547 15.0469 16.5234 18.2812 13.0078 18.2812C11.8359 18.2812 10.7109 17.6719 10.3359 16.9219C10.3359 16.9219 9.77344 19.1719 9.63281 19.6875C9.35156 20.7188 8.64844 21.9844 8.17969 22.7344C9.25781 23.1094 10.4297 23.25 11.6484 23.25C18.0703 23.25 23.2734 18.0469 23.2734 11.625Z" fill="#30312E"/>
</svg>
