<svg width="19" height="24" viewBox="0 0 19 24" fill="none" xmlns="http://www.w3.org/2000/svg">
<path d="M10.0312 0.328125C5.20312 0.328125 0.46875 3.51562 0.46875 8.71875C0.46875 12 2.29688 13.875 3.42188 13.875C3.89062 13.875 4.17188 12.6094 4.17188 12.2344C4.17188 11.8125 3.04688 10.875 3.04688 9.04688C3.04688 5.29688 5.90625 2.625 9.60938 2.625C12.8438 2.625 15.1875 4.45312 15.1875 7.78125C15.1875 10.2656 14.2031 14.9062 10.9688 14.9062C9.79688 14.9062 8.76562 14.0625 8.76562 12.8906C8.76562 11.1094 10.0312 9.375 10.0312 7.54688C10.0312 4.45312 5.625 5.01562 5.625 8.76562C5.625 9.5625 5.71875 10.4062 6.09375 11.1562C5.4375 13.9219 4.125 18.0938 4.125 20.9531C4.125 21.8438 4.21875 22.6875 4.3125 23.5781C4.45312 23.7656 4.40625 23.7656 4.64062 23.6719C6.98438 20.4375 6.9375 19.7812 7.96875 15.5625C8.57812 16.6406 10.0312 17.25 11.25 17.25C16.2188 17.25 18.4688 12.375 18.4688 8.01562C18.4688 3.375 14.4375 0.328125 10.0312 0.328125Z" fill="#30312E"/>
</svg>
