<svg width="13" height="15" viewBox="0 0 13 15" fill="none" xmlns="http://www.w3.org/2000/svg">
<path d="M9.625 4.25C9.625 2.33594 8.03906 0.75 6.125 0.75C4.18359 0.75 2.625 2.33594 2.625 4.25H0V12.5625C0 13.793 0.957031 14.75 2.1875 14.75H10.0625C11.2656 14.75 12.25 13.793 12.25 12.5625V4.25H9.625ZM6.125 1.625C7.54688 1.625 8.75 2.82812 8.75 4.25H3.5C3.5 2.82812 4.67578 1.625 6.125 1.625ZM11.375 12.5625C11.375 13.3008 10.7734 13.875 10.0625 13.875H2.1875C1.44922 13.875 0.875 13.3008 0.875 12.5625V5.125H2.625V6.4375C2.625 6.68359 2.81641 6.875 3.0625 6.875C3.28125 6.875 3.5 6.68359 3.5 6.4375V5.125H8.75V6.4375C8.75 6.68359 8.94141 6.875 9.1875 6.875C9.40625 6.875 9.625 6.68359 9.625 6.4375V5.125H11.375V12.5625Z" fill="#30312E"/>
</svg>
