<svg width="11" height="15" viewBox="0 0 11 15" fill="none" xmlns="http://www.w3.org/2000/svg">
<path d="M8.20312 6.32812L7.92969 4.25H8.96875C9.32422 4.25 9.625 3.97656 9.625 3.59375V1.40625C9.625 1.05078 9.32422 0.75 8.96875 0.75H1.53125C1.14844 0.75 0.875 1.05078 0.875 1.40625V3.59375C0.875 3.97656 1.14844 4.25 1.53125 4.25H2.54297L2.26953 6.32812C0.929688 7.09375 0 8.37891 0 9.9375C0 10.1562 0.191406 10.375 0.4375 10.375H4.8125V13.6562C4.8125 13.6836 4.8125 13.7109 4.8125 13.7109L5.03125 14.5859C5.08594 14.8047 5.38672 14.8047 5.44141 14.5859L5.66016 13.7109C5.66016 13.7109 5.66016 13.6836 5.66016 13.6562V10.375H10.0352C10.2812 10.375 10.4727 10.1562 10.4727 9.9375C10.5 8.37891 9.54297 7.09375 8.20312 6.32812ZM0.902344 9.5C1.09375 8.32422 1.96875 7.39453 3.0625 6.90234L3.5 3.375H1.75V1.625H8.75V3.375H7L7.41016 6.90234C8.50391 7.39453 9.40625 8.32422 9.57031 9.5H0.902344Z" fill="#30312E"/>
</svg>
