<svg width="25" height="20" viewBox="0 0 25 20" fill="none" xmlns="http://www.w3.org/2000/svg">
<path d="M21.9844 5.125C22.9219 4.42188 23.7656 3.57812 24.4219 2.59375C23.5781 2.96875 22.5938 3.25 21.6094 3.34375C22.6406 2.73438 23.3906 1.79688 23.7656 0.625C22.8281 1.1875 21.75 1.60938 20.6719 1.84375C19.7344 0.859375 18.4688 0.296875 17.0625 0.296875C14.3438 0.296875 12.1406 2.5 12.1406 5.21875C12.1406 5.59375 12.1875 5.96875 12.2812 6.34375C8.20312 6.10938 4.54688 4.14062 2.10938 1.1875C1.6875 1.89062 1.45312 2.73438 1.45312 3.67188C1.45312 5.35938 2.29688 6.85938 3.65625 7.75C2.85938 7.70312 2.0625 7.51562 1.40625 7.14062V7.1875C1.40625 9.57812 3.09375 11.5469 5.34375 12.0156C4.96875 12.1094 4.5 12.2031 4.07812 12.2031C3.75 12.2031 3.46875 12.1562 3.14062 12.1094C3.75 14.0781 5.57812 15.4844 7.73438 15.5312C6.04688 16.8438 3.9375 17.6406 1.64062 17.6406C1.21875 17.6406 0.84375 17.5938 0.46875 17.5469C2.625 18.9531 5.20312 19.75 8.01562 19.75C17.0625 19.75 21.9844 12.2969 21.9844 5.78125C21.9844 5.54688 21.9844 5.35938 21.9844 5.125Z" fill="#30312E"/>
</svg>
